<svg width="60.000000" height="60.000000" viewBox="0 0 60 60" fill="none" xmlns="http://www.w3.org/2000/svg" xmlns:xlink="http://www.w3.org/1999/xlink">
	<desc>
			Created with Pixso.
	</desc>
	<defs/>
	<path id="Vector" d="M22.37 2.5L21.87 2.5L9.5 8.25C9.28 8.34 9.09 8.5 8.95 8.7C8.82 8.9 8.75 9.13 8.75 9.37L8.75 18.62L8 19.25L3 23.37C2.82 23.47 2.68 23.62 2.59 23.79C2.5 23.97 2.47 24.17 2.5 24.37L2.5 35.62C2.48 35.82 2.52 36.01 2.61 36.19C2.7 36.36 2.83 36.51 3 36.62L8 40.75L8.75 41.37L8.75 50.62C8.75 50.86 8.82 51.09 8.95 51.29C9.09 51.49 9.28 51.65 9.5 51.75L21.87 57.37L22.37 57.37L23.12 57.12L28.12 53.75L28.12 31.87L26.25 31.87C25.75 31.87 25.27 31.67 24.92 31.32C24.57 30.97 24.37 30.49 24.37 30C24.37 29.5 24.57 29.02 24.92 28.67C25.27 28.32 25.75 28.12 26.25 28.12L28.12 28.12L28.12 6.12L23.12 2.75L22.37 2.5ZM11.25 16.87L14.75 19.25C14.95 19.38 15.13 19.56 15.27 19.77C15.4 19.98 15.5 20.21 15.54 20.45C15.59 20.7 15.59 20.95 15.54 21.19C15.49 21.43 15.39 21.67 15.25 21.87C15.09 22.13 14.87 22.35 14.61 22.51C14.35 22.66 14.05 22.74 13.75 22.75C13.56 22.75 13.38 22.72 13.21 22.66C13.04 22.59 12.88 22.5 12.75 22.37L11.25 21.37L11.25 16.87ZM5 28.12L9.37 28.12C9.87 28.12 10.34 28.32 10.7 28.67C11.05 29.02 11.25 29.5 11.25 30C11.25 30.49 11.05 30.97 10.7 31.32C10.34 31.67 9.87 31.87 9.37 31.87L5 31.87L5 28.12ZM11.25 38.62L12.75 37.62C12.94 37.48 13.16 37.38 13.39 37.33C13.63 37.28 13.87 37.28 14.1 37.33C14.34 37.38 14.56 37.47 14.76 37.61C14.95 37.74 15.12 37.92 15.25 38.12C15.39 38.32 15.49 38.56 15.54 38.8C15.59 39.04 15.59 39.29 15.54 39.54C15.5 39.78 15.4 40.01 15.27 40.22C15.13 40.43 14.95 40.61 14.75 40.75L11.25 43.12L11.25 38.62ZM24.37 23.25L19.37 28.25L19.37 31.75L24.37 36.75L24.37 43.25L20.12 47.62C19.72 47.91 19.24 48.09 18.75 48.12C18.25 48.09 17.77 47.91 17.37 47.62C17.02 47.25 16.82 46.76 16.82 46.25C16.82 45.73 17.02 45.24 17.37 44.87L20.62 41.75L20.62 38.25L15.62 33.25L15.62 26.75L20.62 21.75L20.62 18.25L17.37 15.12C17.11 14.96 16.89 14.75 16.73 14.49C16.57 14.24 16.46 13.95 16.43 13.65C16.39 13.35 16.43 13.05 16.52 12.76C16.62 12.47 16.79 12.21 17 12C17.21 11.79 17.47 11.62 17.76 11.52C18.04 11.43 18.35 11.39 18.65 11.43C18.95 11.46 19.24 11.57 19.49 11.73C19.75 11.89 19.96 12.11 20.12 12.37L24.37 16.75L24.37 23.25Z" fill="#FFFFFF" fill-opacity="1.000000" fill-rule="nonzero"/>
	<path id="Vector" d="M57 23.37L52 19.25L51.25 18.62L51.25 9.37C51.24 9.13 51.17 8.9 51.04 8.7C50.9 8.5 50.71 8.34 50.5 8.25L38.12 2.62L37.62 2.62L36.87 2.87L31.87 6.25L31.87 28.12L33.75 28.12C34.24 28.12 34.72 28.32 35.07 28.67C35.42 29.02 35.62 29.5 35.62 30C35.62 30.49 35.42 30.97 35.07 31.32C34.72 31.67 34.24 31.87 33.75 31.87L31.87 31.87L31.87 53.87L36.87 57.25L37.62 57.5L38.12 57.5L50.5 51.87C50.71 51.77 50.9 51.62 51.04 51.42C51.17 51.22 51.24 50.98 51.25 50.75L51.25 41.37L52 40.75L57 36.62C57.16 36.51 57.29 36.36 57.38 36.19C57.47 36.01 57.51 35.82 57.5 35.62L57.5 24.37C57.52 24.17 57.49 23.97 57.4 23.79C57.31 23.62 57.17 23.47 57 23.37ZM48.75 21.37L47.25 22.37C47.11 22.5 46.95 22.59 46.78 22.66C46.61 22.72 46.43 22.75 46.25 22.75C45.94 22.74 45.64 22.66 45.38 22.51C45.12 22.35 44.9 22.13 44.75 21.87C44.6 21.67 44.5 21.43 44.45 21.19C44.4 20.95 44.4 20.7 44.45 20.45C44.49 20.21 44.59 19.98 44.72 19.77C44.86 19.56 45.04 19.38 45.25 19.25L48.75 16.87L48.75 21.37ZM35.62 36.75L40.62 31.75L40.62 28.25L35.62 23.25L35.62 16.75L39.87 12.37C40.25 12.14 40.7 12.04 41.15 12.09C41.6 12.14 42.01 12.34 42.33 12.66C42.65 12.98 42.85 13.39 42.9 13.84C42.95 14.29 42.85 14.74 42.62 15.12L39.37 18.25L39.37 21.75L44.37 26.75L44.37 33.25L39.37 38.25L39.37 41.75L42.62 44.87C42.97 45.24 43.17 45.73 43.17 46.25C43.17 46.76 42.97 47.25 42.62 47.62C42.24 47.95 41.75 48.12 41.25 48.12C40.74 48.12 40.25 47.95 39.87 47.62L35.62 43.25L35.62 36.75ZM48.75 43.12L45.25 40.75C45.04 40.61 44.86 40.43 44.72 40.22C44.59 40.01 44.49 39.78 44.45 39.54C44.4 39.29 44.4 39.04 44.45 38.8C44.5 38.56 44.6 38.32 44.75 38.12C44.87 37.92 45.04 37.74 45.23 37.61C45.43 37.47 45.65 37.38 45.89 37.33C46.12 37.28 46.36 37.28 46.6 37.33C46.83 37.38 47.05 37.48 47.25 37.62L48.75 38.62L48.75 43.12ZM55 31.87L50.62 31.87C50.12 31.87 49.65 31.67 49.29 31.32C48.94 30.97 48.75 30.49 48.75 30C48.75 29.5 48.94 29.02 49.29 28.67C49.65 28.32 50.12 28.12 50.62 28.12L55 28.12L55 31.87Z" fill="#FFFFFF" fill-opacity="1.000000" fill-rule="nonzero"/>
</svg>
