<svg width="20.000000" height="20.000000" viewBox="0 0 20 20" fill="none" xmlns="http://www.w3.org/2000/svg" xmlns:xlink="http://www.w3.org/1999/xlink">
	<desc>
			Created with Pixso.
	</desc>
	<defs>
		<clipPath id="clip14_583">
			<rect id="filter_svgrepo.com" width="20.000000" height="20.000000" fill="white" fill-opacity="0"/>
		</clipPath>
	</defs>
	<rect id="filter_svgrepo.com" width="20.000000" height="20.000000" fill="#FFFFFF" fill-opacity="0"/>
	<g clip-path="url(#clip14_583)">
		<path id="Vector" d="M4.99 4.16C4.6 4.16 4.41 4.16 4.28 4.28C4.16 4.41 4.16 4.6 4.16 5L4.16 6.63C4.16 6.85 4.16 6.96 4.21 7.05C4.26 7.14 4.35 7.2 4.53 7.33L7.05 9.01C7.78 9.49 8.14 9.73 8.34 10.1C8.54 10.47 8.54 10.91 8.54 11.78L8.54 15.83L11.45 14.37L11.45 11.78C11.45 10.91 11.45 10.47 11.65 10.1C11.85 9.73 12.21 9.49 12.94 9.01L15.46 7.33C15.64 7.2 15.73 7.14 15.78 7.05C15.83 6.96 15.83 6.85 15.83 6.63L15.83 5C15.83 4.6 15.83 4.41 15.71 4.28C15.58 4.16 15.39 4.16 15 4.16L4.99 4.16Z" stroke="#000000" stroke-opacity="1.000000" stroke-width="1.000000" stroke-linejoin="round"/>
	</g>
</svg>
