<svg width="20.000000" height="20.000000" viewBox="0 0 20 20" fill="none" xmlns="http://www.w3.org/2000/svg" xmlns:xlink="http://www.w3.org/1999/xlink">
	<desc>
			Created with Pixso.
	</desc>
	<defs>
		<clipPath id="clip34_4031">
			<rect id="Google" width="20.000000" height="20.000000" fill="white" fill-opacity="0"/>
		</clipPath>
	</defs>
	<rect id="Google" width="20.000000" height="20.000000" fill="#FFFFFF" fill-opacity="0"/>
	<g clip-path="url(#clip34_4031)">
		<path id="Vector" d="M19.98 10.18C19.98 9.36 19.92 8.76 19.77 8.14L10.19 8.14L10.19 11.84L15.81 11.84C15.7 12.76 15.09 14.15 13.73 15.08L13.71 15.2L16.74 17.49L16.95 17.51C18.87 15.77 19.98 13.22 19.98 10.18Z" fill="#4285F4" fill-opacity="1.000000" fill-rule="nonzero"/>
		<path id="Vector" d="M10.19 19.93C12.95 19.93 15.26 19.04 16.95 17.51L13.73 15.08C12.87 15.66 11.71 16.07 10.19 16.07C7.5 16.07 5.21 14.33 4.39 11.93L4.27 11.94L1.12 14.32L1.08 14.43C2.76 17.69 6.21 19.93 10.19 19.93Z" fill="#34A853" fill-opacity="1.000000" fill-rule="nonzero"/>
		<path id="Vector" d="M4.39 11.93C4.18 11.31 4.05 10.65 4.05 9.96C4.05 9.27 4.18 8.61 4.38 7.99L4.38 7.86L1.19 5.44L1.08 5.49C0.39 6.84 0 8.36 0 9.96C0 11.57 0.39 13.08 1.08 14.43L4.39 11.93Z" fill="#FBBC05" fill-opacity="1.000000" fill-rule="nonzero"/>
		<path id="Vector" d="M10.19 3.85C12.11 3.85 13.4 4.66 14.14 5.33L17.02 2.59C15.25 0.98 12.95 0 10.19 0C6.21 0 2.76 2.23 1.08 5.49L4.38 7.99C5.21 5.59 7.5 3.85 10.19 3.85Z" fill="#EB4335" fill-opacity="1.000000" fill-rule="nonzero"/>
	</g>
</svg>
