<svg width="60.000000" height="60.000000" viewBox="0 0 60 60" fill="none" xmlns="http://www.w3.org/2000/svg" xmlns:xlink="http://www.w3.org/1999/xlink">
	<desc>
			Created with Pixso.
	</desc>
	<defs>
		<clipPath id="clip11_61">
			<rect id="help-circle_svgrepo.com" width="60.000000" height="60.000000" fill="white" fill-opacity="0"/>
		</clipPath>
	</defs>
	<rect id="help-circle_svgrepo.com" width="60.000000" height="60.000000" fill="#FFFFFF" fill-opacity="0"/>
	<g clip-path="url(#clip11_61)">
		<path id="Vector" d="M30.5 48.25C40.85 48.25 49.25 39.85 49.25 29.5C49.25 19.14 40.85 10.75 30.5 10.75C20.14 10.75 11.75 19.14 11.75 29.5C11.75 39.85 20.14 48.25 30.5 48.25ZM30.5 52C42.92 52 53 41.92 53 29.5C53 17.07 42.92 7 30.5 7C18.07 7 8 17.07 8 29.5C8 41.92 18.07 52 30.5 52ZM32.37 37L32.37 40.75L28.62 40.75L28.62 37L32.37 37ZM26.75 25.57C26.75 23.65 28.37 22 30.5 22C32.62 22 34.25 23.65 34.25 25.57C34.25 26.34 33.78 27.25 32.76 28.28C31.78 29.29 30.52 30.14 29.48 30.82L28.62 31.37L28.62 35.12L32.37 35.12L32.37 33.4C33.32 32.75 34.45 31.91 35.43 30.92C36.7 29.64 38 27.82 38 25.57C38 21.47 34.58 18.25 30.5 18.25C26.41 18.25 23 21.47 23 25.57L26.75 25.57Z" fill="#FFFFFF" fill-opacity="1.000000" fill-rule="evenodd"/>
	</g>
</svg>
