<svg width="60.000000" height="60.000000" viewBox="0 0 60 60" fill="none" xmlns="http://www.w3.org/2000/svg" xmlns:xlink="http://www.w3.org/1999/xlink">
	<desc>
			Created with Pixso.
	</desc>
	<defs>
		<clipPath id="clip11_64">
			<rect id="home-1391_svgrepo.com" width="60.000000" height="60.000000" fill="white" fill-opacity="0"/>
		</clipPath>
	</defs>
	<rect id="home-1391_svgrepo.com" width="60.000000" height="60.000000" fill="#FFFFFF" fill-opacity="0"/>
	<g clip-path="url(#clip11_64)">
		<path id="home-[#1391]" d="M47.99 52.85L38.99 52.85L38.99 41.42L20.99 41.42L20.99 52.85L11.99 52.85L11.99 26.6L29.96 9.49L47.99 26.66L47.99 52.85ZM53.99 24.29L53.99 24.28L30 1.42L-0.01 29.97L4.23 34.01L5.99 32.32L5.99 58.57L26.99 58.57L26.99 47.14L32.99 47.14L32.99 58.57L53.99 58.57L53.99 58.56L53.99 32.37L55.75 34.04L60 30L53.99 24.29Z" fill="#FFFFFF" fill-opacity="1.000000" fill-rule="evenodd"/>
	</g>
</svg>
