<svg width="161.707214" height="26.250000" viewBox="0 0 161.707 26.25" fill="none" xmlns="http://www.w3.org/2000/svg" xmlns:xlink="http://www.w3.org/1999/xlink">
	<desc>
			Created with Pixso.
	</desc>
	<defs/>
	<path id="Subtract" d="M21.1078 6.80249L17.9097 6.80249C17.7733 6.5072 17.616 6.22827 17.4379 5.96594Q17.0036 5.31458 16.4445 4.79846L16.4438 4.79785L16.4438 4.79773Q16.139 4.5166 15.7972 4.27551Q15.5662 4.10754 15.3229 3.95984Q14.5582 3.49548 13.6719 3.23157Q13.6278 3.21838 13.5835 3.20581L13.5834 3.20569L13.5833 3.20569Q12.4556 2.88354 11.2358 2.88354Q9.74004 2.88354 8.42638 3.37256L8.42629 3.37268L8.42622 3.37268Q7.70963 3.63953 7.04723 4.05188Q6.92206 4.13025 6.8003 4.21375L6.79987 4.21399L6.79971 4.21411L6.79958 4.21423L6.79957 4.21423L6.79956 4.21423Q5.39532 5.17664 4.44577 6.80249L1.13964 6.80249Q1.28734 6.45166 1.45419 6.11511Q2.61168 3.78027 4.45426 2.29602L4.45429 2.2959Q4.92659 1.91553 5.44389 1.59094Q6.02828 1.22424 6.65097 0.942017L6.65099 0.942017L6.65101 0.942017L6.65104 0.942017L6.65108 0.942017L6.6511 0.942017L6.65115 0.942017Q8.73006 0 11.2358 0Q13.1623 0 14.8526 0.559326Q16.0882 0.96521 17.1471 1.64587Q17.5475 1.9032 17.9226 2.19995Q18.2679 2.46985 18.5846 2.7699L18.5846 2.77002Q19.5221 3.65808 20.2095 4.81006C20.5777 5.42188 20.8771 6.08606 21.1078 6.80249ZM87.59 6.80249L90.5698 6.80249C90.5981 6.05408 90.8291 5.38159 91.2629 4.78516C91.7352 4.14709 92.3898 3.64587 93.2267 3.28125C94.0718 2.91663 95.0579 2.73438 96.1848 2.73438C97.7259 2.73438 99.0268 3.0824 100.087 3.77844C101.148 4.47449 101.753 5.45215 101.902 6.71167L104.885 6.71167Q104.851 5.64832 104.491 4.70984L104.491 4.70923Q104.198 3.94788 103.692 3.2688C102.946 2.25793 101.935 1.46252 100.659 0.882446C99.3831 0.294189 97.9248 0 96.2842 0C94.6601 0 93.1894 0.29834 91.8719 0.894897C90.5627 1.48315 89.5187 2.31177 88.7398 3.38074C88.025 4.3645 87.6417 5.50513 87.59 6.80249ZM26.4582 6.80249L29.5406 6.80249L29.5406 3.0824L41.8204 3.0824L41.8204 0.348022L26.4582 0.348022L26.4582 6.80249ZM47.3762 6.80249L50.4585 6.80249L50.4585 0.348022L47.3762 0.348022L47.3762 6.80249ZM67.0637 6.80249L70.146 6.80249L70.146 3.0824L82.4259 3.0824L82.4259 0.348022L67.0637 0.348022L67.0637 6.80249ZM116.913 6.80249L119.996 6.80249L119.996 3.0824L128 3.0824L128 0.348022L108.909 0.348022L108.909 3.0824L116.913 3.0824L116.913 6.80249ZM132.757 6.80249L135.839 6.80249L135.839 0.348022L132.757 0.348022L132.757 6.80249ZM146.809 6.80249L149.809 6.80249L150.67 4.375L150.869 4.375L151.731 6.80249L154.731 6.80249L152.361 0.348022L149.179 0.348022L146.809 6.80249ZM0.27095 9.80249L3.30253 9.80249Q2.98296 11.2882 2.98296 13.0753Q2.98296 14.5402 3.19769 15.8025L0.184109 15.8025Q0 14.5082 0 13.0753Q0 11.337 0.27095 9.80249ZM0.92482 18.8025Q1.15968 19.4414 1.45419 20.0355C2.42365 21.991 3.75355 23.499 5.44389 24.5597Q6.02831 24.9264 6.65102 25.2085L6.65109 25.2085L6.65115 25.2086Q8.73006 26.1505 11.2358 26.1505Q13.1623 26.1505 14.8526 25.5913Q16.1621 25.1611 17.2732 24.4296L17.2736 24.4293L17.2738 24.4292Q17.6071 24.2097 17.9226 23.963C18.834 23.2422 19.5964 22.368 20.2095 21.3406C20.6686 20.5712 21.0209 19.7252 21.2663 18.8025L18.1292 18.8025C17.9515 19.3016 17.7211 19.7623 17.4379 20.1847C16.9904 20.8558 16.4435 21.4235 15.7972 21.8875C15.1592 22.3431 14.4508 22.687 13.6719 22.9191Q13.6347 22.9301 13.5975 22.9408Q13.5905 22.9429 13.5835 22.9448Q12.4557 23.2671 11.2358 23.2671Q9.73994 23.2671 8.42621 22.7778L8.42565 22.7777Q7.70936 22.5109 7.04723 22.0988Q6.92175 22.0201 6.7997 21.9364L6.79958 21.9364Q5.16732 20.8176 4.1494 18.8025L0.92482 18.8025ZM26.4582 18.8025L26.4582 25.8026L42.0193 25.8026L42.0193 23.0682L29.5406 23.0682L29.5406 18.8025L26.4582 18.8025ZM47.3762 18.8025L47.3762 25.8026L62.2909 25.8026L62.2909 23.0682L50.4585 23.0682L50.4585 18.8025L47.3762 18.8025ZM50.4585 15.8025L47.3762 15.8025L47.3762 9.80249L50.4585 9.80249L50.4585 15.8025ZM67.0637 18.8025L67.0637 25.8026L82.6247 25.8026L82.6247 23.0682L70.146 23.0682L70.146 18.8025L67.0637 18.8025ZM70.146 15.8025L67.0637 15.8025L67.0637 9.80249L70.146 9.80249L70.146 11.6832L81.6304 11.6832L81.6304 14.4176L70.146 14.4176L70.146 15.8025ZM102.25 18.8025C102.25 18.8158 102.25 18.829 102.25 18.8423Q102.25 19.6917 101.945 20.4114Q101.75 20.8713 101.43 21.2784C100.883 21.9662 100.141 22.5048 99.205 22.8942C98.2687 23.2754 97.2122 23.4659 96.0356 23.4659C95.0247 23.4659 94.0801 23.3168 93.2018 23.0184C92.3318 22.7119 91.6109 22.2479 91.0392 21.6265C90.4757 20.9967 90.1526 20.2012 90.0697 19.2401L86.8879 19.2401C86.9873 20.6321 87.414 21.8542 88.1681 22.9066C88.9304 23.959 89.9744 24.7793 91.3002 25.3676C92.6342 25.9558 94.2127 26.25 96.0356 26.25C97.9911 26.25 99.6524 25.9227 101.02 25.2681C102.395 24.6135 103.439 23.7311 104.152 22.6207C104.873 21.5104 105.233 20.2676 105.233 18.8921C105.233 18.8621 105.233 18.8323 105.233 18.8025L102.25 18.8025ZM104.458 15.8025L100.315 15.8025C100.115 15.6887 99.9025 15.5834 99.6773 15.4865C98.9067 15.155 98.074 14.8651 97.1791 14.6165L94.047 13.7216C92.0583 13.1499 90.484 12.3337 89.324 11.2731Q88.6855 10.6893 88.2813 9.97339L88.2812 9.97314L88.2808 9.97241L88.2806 9.97217Q88.2513 9.92017 88.2232 9.86755Q88.2059 9.83521 88.1891 9.80249L92.144 9.80249C92.2012 9.84216 92.2597 9.88074 92.3193 9.91833C92.8331 10.2332 93.3717 10.4941 93.9351 10.7013C94.4986 10.9003 95.0164 11.0618 95.4887 11.186L98.074 11.8821C98.7368 12.0562 99.4743 12.2964 100.286 12.603C101.107 12.9095 101.89 13.328 102.635 13.8583C103.368 14.3656 103.976 15.0137 104.458 15.8025ZM116.913 18.8025L116.913 25.8026L119.996 25.8026L119.996 18.8025L116.913 18.8025ZM119.996 15.8025L116.913 15.8025L116.913 9.80249L119.996 9.80249L119.996 15.8025ZM132.757 18.8025L132.757 25.8026L135.839 25.8026L135.839 18.8025L132.757 18.8025ZM135.839 15.8025L132.757 15.8025L132.757 9.80249L135.839 9.80249L135.839 15.8025ZM142.403 18.8025L139.832 25.8026L143.064 25.8026L145.549 18.8025L142.403 18.8025ZM155.991 18.8025L158.476 25.8026L161.707 25.8026L159.137 18.8025L155.991 18.8025ZM158.035 15.8025L155.832 9.80249L152.796 9.80249L154.926 15.8025L158.035 15.8025ZM146.614 15.8025L143.504 15.8025L145.707 9.80249L148.744 9.80249L146.614 15.8025ZM29.5406 15.8025L26.4582 15.8025L26.4582 9.80249L29.5406 9.80249L29.5406 11.6832L41.025 11.6832L41.025 14.4176L29.5406 14.4176L29.5406 15.8025Z" clip-rule="evenodd" fill="#0081F9" fill-opacity="1.000000" fill-rule="evenodd"/>
</svg>
