<svg width="50.001556" height="50.000000" viewBox="0 0 50.0016 50" fill="none" xmlns="http://www.w3.org/2000/svg" xmlns:xlink="http://www.w3.org/1999/xlink">
	<desc>
			Created with Pixso.
	</desc>
	<defs/>
	<path id="Vector" d="M1.87 39.55L5.22 39.55M1.87 30.84L5.22 30.84M1.87 1.87L1.87 48.12L48.12 48.12M1.87 5.29L5.21 5.29M1.87 13.82L5.21 13.82M1.87 22.29L5.21 22.29" stroke="#FFFFFF" stroke-opacity="1.000000" stroke-width="3.750000" stroke-linejoin="round"/>
	<path id="Vector" d="M15.52 37.59C14.89 38.23 14.03 38.58 13.14 38.58C12.25 38.58 11.39 38.23 10.76 37.59C10.13 36.96 9.77 36.11 9.77 35.21C9.77 34.32 10.13 33.46 10.76 32.83C11.39 32.2 12.25 31.84 13.14 31.84C14.03 31.84 14.89 32.2 15.52 32.83C16.15 33.46 16.51 34.32 16.51 35.21C16.51 36.11 16.15 36.96 15.52 37.59ZM24.45 20.15C24.28 20.56 24.03 20.93 23.72 21.24C23.4 21.55 23.03 21.8 22.62 21.97C22.21 22.14 21.78 22.23 21.33 22.23C20.44 22.23 19.58 21.87 18.95 21.24C18.32 20.61 17.96 19.75 17.96 18.86C17.96 17.96 18.32 17.11 18.95 16.47C19.58 15.84 20.44 15.49 21.33 15.49C22.23 15.49 23.08 15.84 23.72 16.47C24.35 17.11 24.7 17.96 24.7 18.86L24.7 18.86C24.7 19.3 24.62 19.74 24.45 20.15ZM37.33 32.61C36.7 33.24 35.84 33.6 34.95 33.6C34.06 33.6 33.2 33.24 32.57 32.61C31.94 31.98 31.58 31.12 31.58 30.23C31.58 29.34 31.94 28.48 32.57 27.85C33.2 27.22 34.06 26.86 34.95 26.86C35.84 26.86 36.7 27.22 37.33 27.85C37.97 28.48 38.32 29.34 38.32 30.23C38.32 31.12 37.97 31.98 37.33 32.61ZM44.08 9.68C43.45 10.31 42.6 10.66 41.7 10.66C40.81 10.66 39.95 10.31 39.32 9.68C38.69 9.04 38.33 8.19 38.33 7.29C38.33 6.4 38.69 5.54 39.32 4.91C39.95 4.28 40.81 3.93 41.7 3.93C42.6 3.93 43.45 4.28 44.08 4.91C44.72 5.54 45.07 6.4 45.07 7.29L45.07 7.29C45.07 8.19 44.72 9.04 44.08 9.68Z" stroke="#FFFFFF" stroke-opacity="1.000000" stroke-width="3.750000" stroke-linejoin="round"/>
	<path id="Vector" d="M15.12 31.93L19.53 22.13M24.24 21.37L31.84 27.98M36.11 26.7L40.97 10.33" stroke="#FFFFFF" stroke-opacity="1.000000" stroke-width="2.500000" stroke-linejoin="round"/>
</svg>
