<svg width="15.319824" height="15.000000" viewBox="0 0 15.3198 15" fill="none" xmlns="http://www.w3.org/2000/svg" xmlns:xlink="http://www.w3.org/1999/xlink">
	<desc>
			Created with Pixso.
	</desc>
	<defs>
		<clipPath id="clip14_659">
			<rect id="out_svgrepo.com" width="15.000000" height="15.319792" transform="translate(15.319824 0.000000) rotate(90.000000)" fill="white" fill-opacity="0"/>
		</clipPath>
	</defs>
	<rect id="out_svgrepo.com" width="15.000000" height="15.319792" transform="translate(15.319824 0.000000) rotate(90.000000)" fill="#FFFFFF" fill-opacity="0"/>
	<g clip-path="url(#clip14_659)">
		<path id="Vector" d="M13.4 1.87L13.72 1.87L13.72 1.56L13.4 1.56L13.4 1.87ZM6.79 7.9C6.67 8.02 6.67 8.22 6.79 8.34C6.92 8.46 7.12 8.46 7.24 8.34L6.79 7.9ZM8.29 2.18L13.4 2.18L13.4 1.56L8.29 1.56L8.29 2.18ZM13.08 1.87L13.08 6.87L13.72 6.87L13.72 1.87L13.08 1.87ZM13.17 1.65L6.79 7.9L7.24 8.34L13.63 2.09L13.17 1.65Z" fill="#222222" fill-opacity="1.000000" fill-rule="nonzero"/>
		<path id="Vector" d="M5.74 2.5C4.55 2.5 3.95 2.5 3.51 2.75C3.21 2.91 2.97 3.15 2.8 3.43C2.55 3.87 2.55 4.45 2.55 5.62L2.55 8.75C2.55 10.51 2.55 11.4 3.11 11.95C3.67 12.5 4.57 12.5 6.38 12.5L9.57 12.5C10.76 12.5 11.36 12.5 11.8 12.24C12.1 12.08 12.34 11.84 12.5 11.56C12.76 11.12 12.76 10.54 12.76 9.37" stroke="#222222" stroke-opacity="1.000000" stroke-width="1.000000" stroke-linecap="round"/>
	</g>
</svg>
