<svg width="60.000000" height="60.000000" viewBox="0 0 60 60" fill="none" xmlns="http://www.w3.org/2000/svg" xmlns:xlink="http://www.w3.org/1999/xlink">
	<desc>
			Created with Pixso.
	</desc>
	<defs>
		<clipPath id="clip11_57">
			<rect id="settings-cog_svgrepo.com" width="60.000000" height="60.000000" fill="white" fill-opacity="0"/>
		</clipPath>
	</defs>
	<g clip-path="url(#clip11_57)">
		<path id="Vector" d="M33.75 5L34.99 4.84C34.91 4.21 34.38 3.75 33.75 3.75L33.75 5ZM26.25 5L26.25 3.75C25.61 3.75 25.08 4.21 25 4.84L26.25 5ZM34.43 10.49L33.19 10.64C33.26 11.17 33.64 11.59 34.16 11.71L34.43 10.49ZM40.65 13.07L39.98 14.12C40.43 14.4 41 14.38 41.42 14.05L40.65 13.07ZM45.02 9.67L45.91 8.78C45.46 8.34 44.75 8.29 44.25 8.68L45.02 9.67ZM50.32 14.97L51.31 15.74C51.7 15.24 51.65 14.53 51.21 14.09L50.32 14.97ZM46.92 19.34L45.94 18.57C45.61 18.99 45.59 19.56 45.87 20.01L46.92 19.34ZM49.5 25.56L48.28 25.83C48.4 26.35 48.82 26.73 49.35 26.8L49.5 25.56ZM55 26.25L56.25 26.25C56.25 25.61 55.78 25.08 55.15 25L55 26.25ZM55 33.75L55.15 34.99C55.78 34.91 56.25 34.38 56.25 33.75L55 33.75ZM49.5 34.43L49.35 33.19C48.82 33.26 48.4 33.64 48.28 34.16L49.5 34.43ZM46.92 40.65L45.87 39.98C45.59 40.43 45.61 41 45.94 41.42L46.92 40.65ZM50.32 45.02L51.21 45.91C51.65 45.46 51.7 44.75 51.31 44.25L50.32 45.02ZM45.02 50.32L44.25 51.31C44.75 51.7 45.46 51.65 45.91 51.21L45.02 50.32ZM40.65 46.92L41.42 45.94C41 45.61 40.43 45.59 39.98 45.87L40.65 46.92ZM34.43 49.5L34.16 48.28C33.64 48.4 33.26 48.82 33.19 49.35L34.43 49.5ZM33.75 55L33.75 56.25C34.38 56.25 34.91 55.78 34.99 55.15L33.75 55ZM26.25 55L25 55.15C25.08 55.78 25.61 56.25 26.25 56.25L26.25 55ZM25.56 49.5L26.8 49.35C26.73 48.82 26.35 48.4 25.83 48.28L25.56 49.5ZM19.34 46.92L20.01 45.87C19.56 45.59 18.99 45.61 18.57 45.94L19.34 46.92ZM14.97 50.32L14.09 51.21C14.53 51.65 15.24 51.7 15.74 51.31L14.97 50.32ZM9.67 45.02L8.68 44.25C8.29 44.75 8.34 45.46 8.78 45.91L9.67 45.02ZM13.07 40.65L14.05 41.42C14.38 41 14.4 40.43 14.12 39.98L13.07 40.65ZM10.49 34.43L11.71 34.16C11.59 33.64 11.17 33.26 10.64 33.19L10.49 34.43ZM5 33.75L3.75 33.75C3.75 34.38 4.21 34.91 4.84 34.99L5 33.75ZM5 26.25L4.84 25C4.21 25.08 3.75 25.61 3.75 26.25L5 26.25ZM10.49 25.56L10.64 26.8C11.17 26.73 11.59 26.35 11.71 25.83L10.49 25.56ZM13.07 19.34L14.12 20.01C14.4 19.56 14.38 18.99 14.05 18.57L13.07 19.34ZM9.67 14.97L8.78 14.09C8.34 14.53 8.29 15.24 8.68 15.74L9.67 14.97ZM14.97 9.67L15.74 8.68C15.24 8.29 14.53 8.34 14.09 8.78L14.97 9.67ZM19.34 13.07L18.57 14.05C18.99 14.38 19.56 14.4 20.01 14.12L19.34 13.07ZM25.56 10.49L25.83 11.71C26.35 11.59 26.73 11.17 26.8 10.64L25.56 10.49ZM33.75 3.75L26.25 3.75L26.25 6.25L33.75 6.25L33.75 3.75ZM35.67 10.33L34.99 4.84L32.5 5.15L33.19 10.64L35.67 10.33ZM41.32 12.01C39.31 10.75 37.09 9.81 34.71 9.27L34.16 11.71C36.25 12.18 38.22 13.01 39.98 14.12L41.32 12.01ZM41.42 14.05L45.79 10.65L44.25 8.68L39.88 12.08L41.42 14.05ZM44.14 10.55L49.44 15.85L51.21 14.09L45.91 8.78L44.14 10.55ZM49.34 14.2L45.94 18.57L47.91 20.11L51.31 15.74L49.34 14.2ZM50.72 25.28C50.18 22.9 49.24 20.68 47.98 18.67L45.87 20.01C46.98 21.77 47.81 23.74 48.28 25.83L50.72 25.28ZM55.15 25L49.66 24.32L49.35 26.8L54.84 27.49L55.15 25ZM56.25 33.75L56.25 26.25L53.75 26.25L53.75 33.75L56.25 33.75ZM49.66 35.67L55.15 34.99L54.84 32.5L49.35 33.19L49.66 35.67ZM47.98 41.32C49.24 39.31 50.18 37.09 50.72 34.71L48.28 34.16C47.81 36.25 46.98 38.22 45.87 39.98L47.98 41.32ZM51.31 44.25L47.91 39.88L45.94 41.42L49.34 45.79L51.31 44.25ZM45.91 51.21L51.21 45.91L49.44 44.14L44.14 49.44L45.91 51.21ZM39.88 47.91L44.25 51.31L45.79 49.34L41.42 45.94L39.88 47.91ZM34.71 50.72C37.09 50.18 39.31 49.24 41.32 47.98L39.98 45.87C38.22 46.98 36.25 47.81 34.16 48.28L34.71 50.72ZM34.99 55.15L35.67 49.66L33.19 49.35L32.5 54.84L34.99 55.15ZM26.25 56.25L33.75 56.25L33.75 53.75L26.25 53.75L26.25 56.25ZM24.32 49.66L25 55.15L27.49 54.84L26.8 49.35L24.32 49.66ZM18.67 47.98C20.68 49.24 22.9 50.18 25.28 50.72L25.83 48.28C23.74 47.81 21.77 46.98 20.01 45.87L18.67 47.98ZM15.74 51.31L20.11 47.91L18.57 45.94L14.2 49.34L15.74 51.31ZM8.78 45.91L14.09 51.21L15.85 49.44L10.55 44.14L8.78 45.91ZM12.08 39.88L8.68 44.25L10.65 45.79L14.05 41.42L12.08 39.88ZM9.27 34.71C9.81 37.09 10.75 39.31 12.01 41.32L14.12 39.98C13.01 38.22 12.18 36.25 11.71 34.16L9.27 34.71ZM4.84 34.99L10.33 35.67L10.64 33.19L5.15 32.5L4.84 34.99ZM3.75 26.25L3.75 33.75L6.25 33.75L6.25 26.25L3.75 26.25ZM10.33 24.32L4.84 25L5.15 27.49L10.64 26.8L10.33 24.32ZM12.01 18.67C10.75 20.68 9.81 22.9 9.27 25.28L11.71 25.83C12.18 23.74 13.01 21.77 14.12 20.01L12.01 18.67ZM8.68 15.74L12.08 20.11L14.05 18.57L10.65 14.2L8.68 15.74ZM14.09 8.78L8.78 14.09L10.55 15.85L15.85 10.55L14.09 8.78ZM20.11 12.08L15.74 8.68L14.2 10.65L18.57 14.05L20.11 12.08ZM25.28 9.27C22.9 9.81 20.68 10.75 18.67 12.01L20.01 14.12C21.77 13.01 23.74 12.18 25.83 11.71L25.28 9.27ZM25 4.84L24.32 10.33L26.8 10.64L27.49 5.15L25 4.84Z" fill="#FFFFFF" fill-opacity="1.000000" fill-rule="nonzero"/>
		<path id="Vector" d="M30 40C24.47 40 20 35.52 20 30C20 24.47 24.47 20 30 20C35.52 20 40 24.47 40 30C40 35.52 35.52 40 30 40Z" stroke="#FFFFFF" stroke-opacity="1.000000" stroke-width="2.500000" stroke-linejoin="round"/>
	</g>
</svg>
