<svg width="20.000000" height="20.000000" viewBox="0 0 20 20" fill="none" xmlns="http://www.w3.org/2000/svg" xmlns:xlink="http://www.w3.org/1999/xlink">
	<desc>
			Created with Pixso.
	</desc>
	<defs>
		<clipPath id="clip11_44">
			<rect id="wallet_svgrepo.com" width="20.000000" height="20.000000" fill="white" fill-opacity="0"/>
		</clipPath>
	</defs>
	<rect id="wallet_svgrepo.com" width="20.000000" height="20.000000" fill="#FFFFFF" fill-opacity="0"/>
	<g clip-path="url(#clip11_44)">
		<path id="Vector" d="M15.83 6.04L15.62 6.04L15.62 4.16C15.62 3.78 15.46 3.41 15.19 3.13C14.92 2.86 14.55 2.71 14.16 2.7C14.1 2.69 14.03 2.69 13.96 2.7L4.05 6.04L3.95 6.04L3.82 6.04L3.68 6.09L3.56 6.09L3.43 6.16L3.33 6.3L3.21 6.4L3.12 6.49L3.02 6.61C2.99 6.64 2.97 6.66 2.95 6.69C2.92 6.74 2.89 6.79 2.87 6.84L2.82 6.94C2.8 7 2.78 7.06 2.76 7.12C2.77 7.15 2.77 7.18 2.76 7.21C2.75 7.31 2.75 7.4 2.76 7.49L2.76 15.83C2.76 16.2 2.91 16.57 3.17 16.84C3.43 17.11 3.79 17.27 4.16 17.29L15.83 17.29C16.21 17.28 16.58 17.13 16.86 16.86C17.13 16.58 17.28 16.21 17.29 15.83L17.29 7.49C17.28 7.11 17.13 6.74 16.86 6.47C16.58 6.19 16.21 6.04 15.83 6.04ZM14.23 3.96C14.27 3.98 14.3 4 14.33 4.04C14.36 4.08 14.37 4.12 14.37 4.16L14.37 6.04L8.01 6.04L14.23 3.96ZM16.04 15.83C16.04 15.88 16.01 15.94 15.98 15.98C15.94 16.01 15.88 16.04 15.83 16.04L4.16 16.04C4.11 16.04 4.05 16.01 4.01 15.98C3.98 15.94 3.95 15.88 3.95 15.83L3.95 7.49C3.95 7.44 3.98 7.39 4.01 7.35C4.05 7.31 4.11 7.29 4.16 7.29L15.83 7.29C15.88 7.29 15.94 7.31 15.98 7.35C16.01 7.39 16.04 7.44 16.04 7.49L16.04 15.83Z" fill="#4FAAFF" fill-opacity="1.000000" fill-rule="nonzero"/>
		<path id="Vector" d="M13.75 12.7C14.32 12.7 14.79 12.24 14.79 11.66C14.79 11.09 14.32 10.62 13.75 10.62C13.17 10.62 12.7 11.09 12.7 11.66C12.7 12.24 13.17 12.7 13.75 12.7Z" fill="#4FAAFF" fill-opacity="1.000000" fill-rule="nonzero"/>
	</g>
</svg>
